<svg width="240" height="240" viewBox="0 0 240 240" fill="none" xmlns="http://www.w3.org/2000/svg">
<path fill-rule="evenodd" clip-rule="evenodd" d="M55.8764 209.481L51.2999 173.328L60.453 168.612L52.8254 88.447H39.0957L36.0447 55.4378L139.78 24.0005L170.29 39.7191L177.918 77.4439L153.51 112.025L109.27 127.744L113.846 151.322H119.948L124.525 181.187L55.8764 209.481ZM104.693 94.7345L101.642 72.7283L124.525 66.4409L130.627 69.5846V82.1595L124.525 90.0189L104.693 94.7345Z" fill="#C73246" stroke="#2A2A2A" stroke-width="8"/>
<path d="M143.51 129.041L146.544 126.349L159.128 126.118L161.725 129.427L173.889 203.188L171.929 207.031L161.441 212.793L157.487 212.189L143.51 129.041Z" fill="#2A2A2A"/>
<path d="M167.317 138.814L176.358 195.443L179.538 197.392L188.23 192.858L189.16 189.316L181.371 139.54L179.189 136.229L170.347 135.985L167.317 138.814Z" fill="#2A2A2A"/>
<path d="M189.54 154.272L187.697 155.915L190.151 173.076L192.732 174.823L196.627 172.596L197.555 169.008L195.622 156.723L192.675 154.177L189.54 154.272Z" fill="#2A2A2A"/>
<path d="M145.102 162.165L133.969 165.134L136.938 182.204L148.071 179.235L145.102 162.165Z" fill="#2A2A2A"/>
</svg>
