<svg width="348" height="142" viewBox="0 0 348 142" fill="none" xmlns="http://www.w3.org/2000/svg">
<mask id="path-1-outside-1_2230_1270" maskUnits="userSpaceOnUse" x="5.5" y="9" width="337" height="72" fill="black">
<rect fill="white" x="5.5" y="9" width="337" height="72"/>
<path d="M10.4254 76L19.1554 14.26H51.7354C54.9754 14.26 57.8254 14.98 60.2854 16.42C62.8054 17.86 64.7854 19.81 66.2254 22.27C67.6654 24.73 68.3854 27.49 68.3854 30.55C68.3854 34.63 67.4254 38.47 65.5054 42.07C63.6454 45.67 61.0054 48.58 57.5854 50.8C54.1654 52.96 50.1454 54.04 45.5254 54.04H32.4754L29.3254 76H10.4254ZM34.3654 40.27H42.8254C44.2654 40.27 45.4654 39.94 46.4254 39.28C47.3854 38.62 48.0754 37.75 48.4954 36.67C48.9754 35.53 49.2154 34.3 49.2154 32.98C49.2154 31.84 48.8254 30.79 48.0454 29.83C47.3254 28.87 46.1554 28.39 44.5354 28.39H36.0754L34.3654 40.27ZM93.0032 76.9C88.4432 76.9 84.3932 75.88 80.8532 73.84C77.3732 71.8 74.6132 69.04 72.5732 65.56C70.5932 62.02 69.6032 58.06 69.6032 53.68C69.6032 52.6 69.7532 50.89 70.0532 48.55C70.3532 46.15 70.7132 43.48 71.1332 40.54C71.6732 36.82 72.7832 33.34 74.4632 30.1C76.2032 26.8 78.3932 23.92 81.0332 21.46C83.7332 19 86.8232 17.08 90.3032 15.7C93.8432 14.26 97.7132 13.54 101.913 13.54H106.953C111.513 13.54 115.533 14.56 119.013 16.6C122.553 18.64 125.313 21.43 127.293 24.97C129.333 28.45 130.353 32.38 130.353 36.76C130.353 37.9 130.203 39.64 129.903 41.98C129.663 44.32 129.303 46.96 128.823 49.9C128.283 53.62 127.143 57.13 125.403 60.43C123.723 63.67 121.533 66.52 118.833 68.98C116.193 71.44 113.103 73.39 109.563 74.83C106.083 76.21 102.243 76.9 98.0432 76.9H93.0032ZM97.7732 62.86C99.1532 62.86 100.413 62.68 101.553 62.32C102.753 61.9 103.803 61.3 104.703 60.52C105.603 59.74 106.323 58.81 106.863 57.73C107.463 56.59 107.853 55.3 108.033 53.86C108.573 50.2 108.993 47.23 109.293 44.95C109.593 42.67 109.833 40.9 110.013 39.64C110.193 38.38 110.313 37.42 110.373 36.76C110.433 36.1 110.463 35.56 110.463 35.14C110.463 33.64 110.103 32.32 109.383 31.18C108.723 30.04 107.763 29.17 106.503 28.57C105.303 27.91 103.863 27.58 102.183 27.58C100.803 27.58 99.5132 27.79 98.3132 28.21C97.1732 28.57 96.1532 29.14 95.2532 29.92C94.3532 30.7 93.6032 31.66 93.0032 32.8C92.4632 33.88 92.1032 35.14 91.9232 36.58C91.3832 40.24 90.9632 43.21 90.6632 45.49C90.3632 47.77 90.1232 49.54 89.9432 50.8C89.7632 52.06 89.6432 53.02 89.5832 53.68C89.5232 54.34 89.4932 54.88 89.4932 55.3C89.4932 56.8 89.8232 58.12 90.4832 59.26C91.2032 60.4 92.1632 61.3 93.3632 61.96C94.6232 62.56 96.0932 62.86 97.7732 62.86ZM144.551 76L136.451 14.26H155.981L159.851 48.55H160.211L173.891 14.26H193.241L197.021 48.55H197.381L210.971 14.26H228.701L203.231 76H181.811L178.571 46.39H178.031L166.331 76H144.551ZM225.142 76L233.872 14.26H280.222L276.442 28.66H250.432L249.172 37.48H274.102L272.212 51.25H247.192L245.752 61.6H271.402L271.492 76H225.142ZM323.387 76.9C320.987 76.9 318.947 76.6 317.267 76C315.587 75.46 314.297 74.56 313.397 73.3C312.497 71.98 312.047 70.24 312.047 68.08C312.047 66.88 312.167 65.68 312.407 64.48C312.647 63.28 312.767 61.99 312.767 60.61C312.767 59.59 312.677 58.69 312.497 57.91C312.317 57.13 311.957 56.5 311.417 56.02C310.937 55.48 310.277 55.09 309.437 54.85C308.597 54.55 307.487 54.4 306.107 54.4H300.617L297.557 76H279.107L287.747 14.26H322.667C325.427 14.26 327.917 14.89 330.137 16.15C332.357 17.35 334.127 19.03 335.447 21.19C336.827 23.29 337.517 25.69 337.517 28.39C337.517 31.57 336.887 34.39 335.627 36.85C334.427 39.31 332.807 41.35 330.767 42.97C328.787 44.59 326.627 45.76 324.287 46.48L324.197 46.93C325.637 47.35 326.837 47.89 327.797 48.55C328.817 49.15 329.627 49.9 330.227 50.8C330.887 51.64 331.367 52.63 331.667 53.77C331.967 54.91 332.117 56.17 332.117 57.55C332.117 58.81 331.997 59.98 331.757 61.06C331.577 62.14 331.487 63.46 331.487 65.02C331.487 65.98 331.577 66.91 331.757 67.81C331.937 68.71 332.267 69.49 332.747 70.15C333.287 70.81 334.007 71.26 334.907 71.5L334.367 75.19C332.627 75.85 330.797 76.3 328.877 76.54C326.957 76.78 325.127 76.9 323.387 76.9ZM302.597 40.63H312.497C313.757 40.63 314.807 40.27 315.647 39.55C316.487 38.77 317.117 37.81 317.537 36.67C318.017 35.47 318.257 34.21 318.257 32.89C318.257 31.63 317.897 30.58 317.177 29.74C316.517 28.84 315.497 28.39 314.117 28.39H304.217L302.597 40.63Z"/>
</mask>
<path d="M10.4254 76L19.1554 14.26H51.7354C54.9754 14.26 57.8254 14.98 60.2854 16.42C62.8054 17.86 64.7854 19.81 66.2254 22.27C67.6654 24.73 68.3854 27.49 68.3854 30.55C68.3854 34.63 67.4254 38.47 65.5054 42.07C63.6454 45.67 61.0054 48.58 57.5854 50.8C54.1654 52.96 50.1454 54.04 45.5254 54.04H32.4754L29.3254 76H10.4254ZM34.3654 40.27H42.8254C44.2654 40.27 45.4654 39.94 46.4254 39.28C47.3854 38.62 48.0754 37.75 48.4954 36.67C48.9754 35.53 49.2154 34.3 49.2154 32.98C49.2154 31.84 48.8254 30.79 48.0454 29.83C47.3254 28.87 46.1554 28.39 44.5354 28.39H36.0754L34.3654 40.27ZM93.0032 76.9C88.4432 76.9 84.3932 75.88 80.8532 73.84C77.3732 71.8 74.6132 69.04 72.5732 65.56C70.5932 62.02 69.6032 58.06 69.6032 53.68C69.6032 52.6 69.7532 50.89 70.0532 48.55C70.3532 46.15 70.7132 43.48 71.1332 40.54C71.6732 36.82 72.7832 33.34 74.4632 30.1C76.2032 26.8 78.3932 23.92 81.0332 21.46C83.7332 19 86.8232 17.08 90.3032 15.7C93.8432 14.26 97.7132 13.54 101.913 13.54H106.953C111.513 13.54 115.533 14.56 119.013 16.6C122.553 18.64 125.313 21.43 127.293 24.97C129.333 28.45 130.353 32.38 130.353 36.76C130.353 37.9 130.203 39.64 129.903 41.98C129.663 44.32 129.303 46.96 128.823 49.9C128.283 53.62 127.143 57.13 125.403 60.43C123.723 63.67 121.533 66.52 118.833 68.98C116.193 71.44 113.103 73.39 109.563 74.83C106.083 76.21 102.243 76.9 98.0432 76.9H93.0032ZM97.7732 62.86C99.1532 62.86 100.413 62.68 101.553 62.32C102.753 61.9 103.803 61.3 104.703 60.52C105.603 59.74 106.323 58.81 106.863 57.73C107.463 56.59 107.853 55.3 108.033 53.86C108.573 50.2 108.993 47.23 109.293 44.95C109.593 42.67 109.833 40.9 110.013 39.64C110.193 38.38 110.313 37.42 110.373 36.76C110.433 36.1 110.463 35.56 110.463 35.14C110.463 33.64 110.103 32.32 109.383 31.18C108.723 30.04 107.763 29.17 106.503 28.57C105.303 27.91 103.863 27.58 102.183 27.58C100.803 27.58 99.5132 27.79 98.3132 28.21C97.1732 28.57 96.1532 29.14 95.2532 29.92C94.3532 30.7 93.6032 31.66 93.0032 32.8C92.4632 33.88 92.1032 35.14 91.9232 36.58C91.3832 40.24 90.9632 43.21 90.6632 45.49C90.3632 47.77 90.1232 49.54 89.9432 50.8C89.7632 52.06 89.6432 53.02 89.5832 53.68C89.5232 54.34 89.4932 54.88 89.4932 55.3C89.4932 56.8 89.8232 58.12 90.4832 59.26C91.2032 60.4 92.1632 61.3 93.3632 61.96C94.6232 62.56 96.0932 62.86 97.7732 62.86ZM144.551 76L136.451 14.26H155.981L159.851 48.55H160.211L173.891 14.26H193.241L197.021 48.55H197.381L210.971 14.26H228.701L203.231 76H181.811L178.571 46.39H178.031L166.331 76H144.551ZM225.142 76L233.872 14.26H280.222L276.442 28.66H250.432L249.172 37.48H274.102L272.212 51.25H247.192L245.752 61.6H271.402L271.492 76H225.142ZM323.387 76.9C320.987 76.9 318.947 76.6 317.267 76C315.587 75.46 314.297 74.56 313.397 73.3C312.497 71.98 312.047 70.24 312.047 68.08C312.047 66.88 312.167 65.68 312.407 64.48C312.647 63.28 312.767 61.99 312.767 60.61C312.767 59.59 312.677 58.69 312.497 57.91C312.317 57.13 311.957 56.5 311.417 56.02C310.937 55.48 310.277 55.09 309.437 54.85C308.597 54.55 307.487 54.4 306.107 54.4H300.617L297.557 76H279.107L287.747 14.26H322.667C325.427 14.26 327.917 14.89 330.137 16.15C332.357 17.35 334.127 19.03 335.447 21.19C336.827 23.29 337.517 25.69 337.517 28.39C337.517 31.57 336.887 34.39 335.627 36.85C334.427 39.31 332.807 41.35 330.767 42.97C328.787 44.59 326.627 45.76 324.287 46.48L324.197 46.93C325.637 47.35 326.837 47.89 327.797 48.55C328.817 49.15 329.627 49.9 330.227 50.8C330.887 51.64 331.367 52.63 331.667 53.77C331.967 54.91 332.117 56.17 332.117 57.55C332.117 58.81 331.997 59.98 331.757 61.06C331.577 62.14 331.487 63.46 331.487 65.02C331.487 65.98 331.577 66.91 331.757 67.81C331.937 68.71 332.267 69.49 332.747 70.15C333.287 70.81 334.007 71.26 334.907 71.5L334.367 75.19C332.627 75.85 330.797 76.3 328.877 76.54C326.957 76.78 325.127 76.9 323.387 76.9ZM302.597 40.63H312.497C313.757 40.63 314.807 40.27 315.647 39.55C316.487 38.77 317.117 37.81 317.537 36.67C318.017 35.47 318.257 34.21 318.257 32.89C318.257 31.63 317.897 30.58 317.177 29.74C316.517 28.84 315.497 28.39 314.117 28.39H304.217L302.597 40.63Z" fill="#C73246"/>
<path d="M10.4254 76L6.46475 75.44L5.81996 80H10.4254V76ZM19.1554 14.26V10.26H15.6812L15.1947 13.7L19.1554 14.26ZM60.2854 16.42L58.2646 19.8721L58.2827 19.8826L58.3008 19.893L60.2854 16.42ZM66.2254 22.27L62.7733 24.2907V24.2907L66.2254 22.27ZM65.5054 42.07L61.9759 40.1876L61.9636 40.2107L61.9516 40.2339L65.5054 42.07ZM57.5854 50.8L59.7213 54.182L59.7424 54.1687L59.7632 54.1551L57.5854 50.8ZM32.4754 54.04V50.04H29.0082L28.5159 53.472L32.4754 54.04ZM29.3254 76V80H32.7925L33.2848 76.568L29.3254 76ZM34.3654 40.27L30.4062 39.7001L29.7484 44.27H34.3654V40.27ZM48.4954 36.67L44.8088 35.1178L44.7874 35.1687L44.7673 35.2202L48.4954 36.67ZM48.0454 29.83L44.8453 32.23L44.8919 32.2921L44.9409 32.3524L48.0454 29.83ZM36.0754 28.39V24.39H32.6099L32.1162 27.8201L36.0754 28.39ZM10.4254 76L14.386 76.56L23.116 14.82L19.1554 14.26L15.1947 13.7L6.46475 75.44L10.4254 76ZM19.1554 14.26V18.26H51.7354V14.26V10.26H19.1554V14.26ZM51.7354 14.26V18.26C54.364 18.26 56.4977 18.8377 58.2646 19.8721L60.2854 16.42L62.3061 12.9679C59.153 11.1223 55.5867 10.26 51.7354 10.26V14.26ZM60.2854 16.42L58.3008 19.893C60.2246 20.9923 61.6936 22.4463 62.7733 24.2907L66.2254 22.27L69.6774 20.2493C67.8771 17.1737 65.3861 14.7277 62.2699 12.947L60.2854 16.42ZM66.2254 22.27L62.7733 24.2907C63.8281 26.0927 64.3854 28.1462 64.3854 30.55H68.3854H72.3854C72.3854 26.8338 71.5026 23.3673 69.6774 20.2493L66.2254 22.27ZM68.3854 30.55H64.3854C64.3854 33.9734 63.587 37.167 61.9759 40.1876L65.5054 42.07L69.0348 43.9524C71.2637 39.773 72.3854 35.2866 72.3854 30.55H68.3854ZM65.5054 42.07L61.9516 40.2339C60.4126 43.2127 58.2485 45.6007 55.4075 47.4449L57.5854 50.8L59.7632 54.1551C63.7622 51.5593 66.8781 48.1273 69.0591 43.9061L65.5054 42.07ZM57.5854 50.8L55.4494 47.418C52.7558 49.1193 49.4994 50.04 45.5254 50.04V54.04V58.04C50.7913 58.04 55.5749 56.8007 59.7213 54.182L57.5854 50.8ZM45.5254 54.04V50.04H32.4754V54.04V58.04H45.5254V54.04ZM32.4754 54.04L28.5159 53.472L25.3659 75.432L29.3254 76L33.2848 76.568L36.4348 54.608L32.4754 54.04ZM29.3254 76V72H10.4254V76V80H29.3254V76ZM34.3654 40.27V44.27H42.8254V40.27V36.27H34.3654V40.27ZM42.8254 40.27V44.27C44.8819 44.27 46.9218 43.7928 48.6915 42.5762L46.4254 39.28L44.1592 35.9838C44.0089 36.0872 43.6489 36.27 42.8254 36.27V40.27ZM46.4254 39.28L48.6915 42.5762C50.3092 41.464 51.5107 39.9523 52.2234 38.1198L48.4954 36.67L44.7673 35.2202C44.64 35.5477 44.4615 35.776 44.1592 35.9838L46.4254 39.28ZM48.4954 36.67L52.1819 38.2222C52.8824 36.5585 53.2154 34.7969 53.2154 32.98H49.2154H45.2154C45.2154 33.8031 45.0683 34.5015 44.8088 35.1178L48.4954 36.67ZM49.2154 32.98H53.2154C53.2154 30.8411 52.4564 28.9157 51.1498 27.3076L48.0454 29.83L44.9409 32.3524C45.1943 32.6643 45.2154 32.8389 45.2154 32.98H49.2154ZM48.0454 29.83L51.2454 27.43C49.524 25.1349 46.9386 24.39 44.5354 24.39V28.39V32.39C44.9647 32.39 45.121 32.4553 45.1096 32.4507C45.0995 32.4465 45.0559 32.4267 44.9968 32.3817C44.9367 32.3359 44.8844 32.2821 44.8453 32.23L48.0454 29.83ZM44.5354 28.39V24.39H36.0754V28.39V32.39H44.5354V28.39ZM36.0754 28.39L32.1162 27.8201L30.4062 39.7001L34.3654 40.27L38.3245 40.8399L40.0345 28.9599L36.0754 28.39ZM80.8532 73.84L78.8303 77.2908L78.8431 77.2983L78.856 77.3057L80.8532 73.84ZM72.5732 65.56L69.0821 67.5126L69.1019 67.548L69.1224 67.5829L72.5732 65.56ZM70.0532 48.55L74.0207 49.0587L74.0223 49.0461L70.0532 48.55ZM71.1332 40.54L67.1746 39.9654L67.1734 39.9743L71.1332 40.54ZM74.4632 30.1L70.9249 28.2344L70.9185 28.2465L70.9121 28.2587L74.4632 30.1ZM81.0332 21.46L78.3392 18.5032L78.3226 18.5183L78.3063 18.5336L81.0332 21.46ZM90.3032 15.7L91.7777 19.4183L91.794 19.4118L91.8104 19.4052L90.3032 15.7ZM119.013 16.6L116.99 20.0508L117.003 20.0583L117.016 20.0657L119.013 16.6ZM127.293 24.97L123.802 26.9226L123.822 26.9579L123.842 26.9929L127.293 24.97ZM129.903 41.98L125.936 41.4713L125.929 41.5215L125.924 41.5719L129.903 41.98ZM128.823 49.9L124.875 49.2555L124.87 49.2904L124.865 49.3254L128.823 49.9ZM125.403 60.43L121.865 58.5644L121.858 58.5765L121.852 58.5887L125.403 60.43ZM118.833 68.98L116.139 66.0232L116.123 66.0383L116.106 66.0536L118.833 68.98ZM109.563 74.83L111.038 78.5483L111.054 78.5418L111.07 78.5352L109.563 74.83ZM101.553 62.32L102.758 66.1343L102.816 66.1158L102.875 66.0954L101.553 62.32ZM104.703 60.52L107.323 63.5428V63.5428L104.703 60.52ZM106.863 57.73L103.323 55.867L103.304 55.9039L103.285 55.9411L106.863 57.73ZM108.033 53.86L104.076 53.2762L104.07 53.3199L104.064 53.3639L108.033 53.86ZM109.293 44.95L105.327 44.4282V44.4282L109.293 44.95ZM110.013 39.64L106.053 39.0743V39.0743L110.013 39.64ZM109.383 31.18L105.921 33.1841L105.96 33.2508L106.001 33.316L109.383 31.18ZM106.503 28.57L104.575 32.0749L104.678 32.1312L104.783 32.1814L106.503 28.57ZM98.3132 28.21L99.5177 32.0243L99.5764 32.0058L99.6346 31.9854L98.3132 28.21ZM95.2532 29.92L92.6334 26.8972L92.6334 26.8972L95.2532 29.92ZM93.0032 32.8L89.4635 30.937L89.4441 30.9739L89.4255 31.0111L93.0032 32.8ZM91.9232 36.58L95.8803 37.1638L95.8868 37.1201L95.8923 37.0761L91.9232 36.58ZM89.9432 50.8L93.903 51.3657L93.903 51.3657L89.9432 50.8ZM89.5832 53.68L93.5667 54.0421V54.0421L89.5832 53.68ZM90.4832 59.26L87.0215 61.2641L87.0601 61.3308L87.1012 61.396L90.4832 59.26ZM93.3632 61.96L91.4355 65.4649L91.5379 65.5212L91.6434 65.5714L93.3632 61.96ZM93.0032 76.9V72.9C89.061 72.9 85.7147 72.0249 82.8504 70.3743L80.8532 73.84L78.856 77.3057C83.0716 79.7351 87.8253 80.9 93.0032 80.9V76.9ZM80.8532 73.84L82.876 70.3892C79.9863 68.6952 77.7179 66.4269 76.024 63.5371L72.5732 65.56L69.1224 67.5829C71.5084 71.6531 74.76 74.9048 78.8303 77.2908L80.8532 73.84ZM72.5732 65.56L76.0642 63.6074C74.4443 60.7113 73.6032 57.4325 73.6032 53.68H69.6032H65.6032C65.6032 58.6875 66.742 63.3287 69.0821 67.5126L72.5732 65.56ZM69.6032 53.68H73.6032C73.6032 52.8733 73.7232 51.3792 74.0207 49.0587L70.0532 48.55L66.0856 48.0413C65.7831 50.4008 65.6032 52.3267 65.6032 53.68H69.6032ZM70.0532 48.55L74.0223 49.0461C74.3188 46.6739 74.6756 44.0275 75.093 41.1057L71.1332 40.54L67.1734 39.9743C66.7508 42.9325 66.3875 45.6261 66.0841 48.0539L70.0532 48.55ZM71.1332 40.54L75.0917 41.1146C75.5695 37.8232 76.5459 34.7729 78.0142 31.9413L74.4632 30.1L70.9121 28.2587C69.0204 31.9071 67.7769 35.8168 67.1747 39.9654L71.1332 40.54ZM74.4632 30.1L78.0014 31.9656C79.5395 29.0486 81.4591 26.5305 83.7601 24.3864L81.0332 21.46L78.3063 18.5336C75.3272 21.3095 72.8668 24.5514 70.9249 28.2344L74.4632 30.1ZM81.0332 21.46L83.7271 24.4168C86.061 22.2904 88.7354 20.6247 91.7777 19.4183L90.3032 15.7L88.8287 11.9817C84.9109 13.5353 81.4053 15.7096 78.3392 18.5032L81.0332 21.46ZM90.3032 15.7L91.8104 19.4052C94.8264 18.1783 98.1786 17.54 101.913 17.54V13.54V9.54C97.2478 9.54 92.86 10.3417 88.796 11.9948L90.3032 15.7ZM101.913 13.54V17.54H106.953V13.54V9.54H101.913V13.54ZM106.953 13.54V17.54C110.897 17.54 114.201 18.4154 116.99 20.0508L119.013 16.6L121.036 13.1492C116.866 10.7046 112.13 9.54 106.953 9.54V13.54ZM119.013 16.6L117.016 20.0657C119.935 21.7481 122.177 24.0173 123.802 26.9226L127.293 24.97L130.784 23.0174C128.449 18.8426 125.171 15.5319 121.01 13.1343L119.013 16.6ZM127.293 24.97L123.842 26.9929C125.492 29.8072 126.353 33.0281 126.353 36.76H130.353H134.353C134.353 31.7319 133.174 27.0928 130.744 22.9471L127.293 24.97ZM130.353 36.76H126.353C126.353 37.6318 126.232 39.1616 125.936 41.4713L129.903 41.98L133.871 42.4887C134.175 40.1184 134.353 38.1682 134.353 36.76H130.353ZM129.903 41.98L125.924 41.5719C125.694 43.8153 125.346 46.3744 124.875 49.2555L128.823 49.9L132.771 50.5445C133.261 47.5456 133.632 44.8247 133.882 42.3881L129.903 41.98ZM128.823 49.9L124.865 49.3254C124.39 52.5977 123.391 55.6707 121.865 58.5644L125.403 60.43L128.941 62.2956C130.896 58.5893 132.177 54.6423 132.782 50.4746L128.823 49.9ZM125.403 60.43L121.852 58.5887C120.39 61.4088 118.49 63.8812 116.139 66.0232L118.833 68.98L121.527 71.9368C124.576 69.1588 127.056 65.9312 128.954 62.2713L125.403 60.43ZM118.833 68.98L116.106 66.0536C113.843 68.1628 111.172 69.8571 108.056 71.1248L109.563 74.83L111.07 78.5352C115.034 76.9229 118.544 74.7172 121.56 71.9064L118.833 68.98ZM109.563 74.83L108.089 71.1117C105.132 72.2842 101.8 72.9 98.0432 72.9V76.9V80.9C102.687 80.9 107.035 80.1358 111.038 78.5483L109.563 74.83ZM98.0432 76.9V72.9H93.0032V76.9V80.9H98.0432V76.9ZM97.7732 62.86V66.86C99.5001 66.86 101.173 66.6347 102.758 66.1343L101.553 62.32L100.349 58.5057C99.6531 58.7253 98.8063 58.86 97.7732 58.86V62.86ZM101.553 62.32L102.875 66.0954C104.518 65.5201 106.016 64.6751 107.323 63.5428L104.703 60.52L102.083 57.4972C101.59 57.9249 100.988 58.2799 100.232 58.5446L101.553 62.32ZM104.703 60.52L107.323 63.5428C108.626 62.4135 109.669 61.0624 110.441 59.5189L106.863 57.73L103.285 55.9411C102.977 56.5576 102.581 57.0665 102.083 57.4972L104.703 60.52ZM106.863 57.73L110.403 59.593C111.254 57.9765 111.77 56.2139 112.002 54.3561L108.033 53.86L104.064 53.3639C103.936 54.3861 103.673 55.2035 103.323 55.867L106.863 57.73ZM108.033 53.86L111.99 54.4438C112.532 50.774 112.955 47.781 113.259 45.4718L109.293 44.95L105.327 44.4282C105.031 46.6789 104.615 49.626 104.076 53.2762L108.033 53.86ZM109.293 44.95L113.259 45.4718C113.558 43.1968 113.796 41.4439 113.973 40.2057L110.013 39.64L106.053 39.0743C105.87 40.3561 105.628 42.1432 105.327 44.4282L109.293 44.95ZM110.013 39.64L113.973 40.2057C114.156 38.9274 114.287 37.8863 114.357 37.1221L110.373 36.76L106.39 36.3979C106.339 36.9537 106.231 37.8326 106.053 39.0743L110.013 39.64ZM110.373 36.76L114.357 37.1221C114.422 36.4019 114.463 35.7291 114.463 35.14H110.463H106.463C106.463 35.3909 106.444 35.7981 106.39 36.3979L110.373 36.76ZM110.463 35.14H114.463C114.463 32.9717 113.933 30.8937 112.765 29.044L109.383 31.18L106.001 33.316C106.273 33.7463 106.463 34.3083 106.463 35.14H110.463ZM109.383 31.18L112.845 29.1758C111.755 27.2938 110.167 25.8842 108.223 24.9586L106.503 28.57L104.783 32.1814C105.36 32.4558 105.691 32.7862 105.921 33.1841L109.383 31.18ZM106.503 28.57L108.431 25.0651C106.521 24.0145 104.386 23.58 102.183 23.58V27.58V31.58C103.34 31.58 104.086 31.8055 104.575 32.0749L106.503 28.57ZM102.183 27.58V23.58C100.392 23.58 98.6513 23.8537 96.9918 24.4346L98.3132 28.21L99.6346 31.9854C100.375 31.7263 101.215 31.58 102.183 31.58V27.58ZM98.3132 28.21L97.1086 24.3957C95.4499 24.9195 93.9478 25.7581 92.6334 26.8972L95.2532 29.92L97.8729 32.9428C98.3585 32.5219 98.8965 32.2205 99.5177 32.0243L98.3132 28.21ZM95.2532 29.92L92.6334 26.8972C91.3276 28.029 90.2763 29.3927 89.4635 30.937L93.0032 32.8L96.5428 34.663C96.9301 33.9273 97.3787 33.371 97.8729 32.9428L95.2532 29.92ZM93.0032 32.8L89.4255 31.0111C88.6464 32.5693 88.1793 34.2821 87.9541 36.0839L91.9232 36.58L95.8923 37.0761C96.0271 35.9979 96.2799 35.1907 96.5809 34.5889L93.0032 32.8ZM91.9232 36.58L87.966 35.9962C87.4245 39.666 87.0012 42.659 86.6973 44.9682L90.6632 45.49L94.629 46.0118C94.9251 43.761 95.3418 40.814 95.8803 37.1638L91.9232 36.58ZM90.6632 45.49L86.6973 44.9682C86.398 47.2432 86.1603 48.9961 85.9834 50.2343L89.9432 50.8L93.903 51.3657C94.0861 50.0839 94.3283 48.2968 94.629 46.0118L90.6632 45.49ZM89.9432 50.8L85.9834 50.2343C85.8008 51.5126 85.6691 52.5537 85.5996 53.3179L89.5832 53.68L93.5667 54.0421C93.6173 53.4863 93.7256 52.6074 93.903 51.3657L89.9432 50.8ZM89.5832 53.68L85.5996 53.3178C85.5341 54.0381 85.4932 54.7109 85.4932 55.3H89.4932H93.4932C93.4932 55.0491 93.5122 54.6419 93.5667 54.0421L89.5832 53.68ZM89.4932 55.3H85.4932C85.4932 57.4045 85.9622 59.4345 87.0215 61.2641L90.4832 59.26L93.9449 57.2559C93.6841 56.8055 93.4932 56.1955 93.4932 55.3H89.4932ZM90.4832 59.26L87.1012 61.396C88.1883 63.1172 89.6525 64.4842 91.4355 65.4649L93.3632 61.96L95.2908 58.4551C94.6738 58.1158 94.218 57.6828 93.8651 57.124L90.4832 59.26ZM93.3632 61.96L91.6434 65.5714C93.539 66.4741 95.6177 66.86 97.7732 66.86V62.86V58.86C96.5687 58.86 95.7073 58.6459 95.0829 58.3486L93.3632 61.96ZM144.551 76L140.585 76.5203L141.041 80H144.551V76ZM136.451 14.26V10.26H131.892L132.485 14.7803L136.451 14.26ZM155.981 14.26L159.955 13.8114L159.555 10.26H155.981V14.26ZM159.851 48.55L155.876 48.9986L156.277 52.55H159.851V48.55ZM160.211 48.55V52.55H162.921L163.926 50.0322L160.211 48.55ZM173.891 14.26V10.26H171.18L170.175 12.7778L173.891 14.26ZM193.241 14.26L197.217 13.8217L196.824 10.26H193.241V14.26ZM197.021 48.55L193.045 48.9883L193.437 52.55H197.021V48.55ZM197.381 48.55V52.55H200.098L201.099 50.0238L197.381 48.55ZM210.971 14.26V10.26H208.253L207.252 12.7862L210.971 14.26ZM228.701 14.26L232.398 15.7854L234.678 10.26H228.701V14.26ZM203.231 76V80H205.908L206.928 77.5254L203.231 76ZM181.811 76L177.834 76.4351L178.224 80H181.811V76ZM178.571 46.39L182.547 45.9549L182.157 42.39H178.571V46.39ZM178.031 46.39V42.39H175.31L174.311 44.92L178.031 46.39ZM166.331 76V80H169.051L170.051 77.47L166.331 76ZM144.551 76L148.517 75.4797L140.417 13.7397L136.451 14.26L132.485 14.7803L140.585 76.5203L144.551 76ZM136.451 14.26V18.26H155.981V14.26V10.26H136.451V14.26ZM155.981 14.26L152.006 14.7086L155.876 48.9986L159.851 48.55L163.825 48.1014L159.955 13.8114L155.981 14.26ZM159.851 48.55V52.55H160.211V48.55V44.55H159.851V48.55ZM160.211 48.55L163.926 50.0322L177.606 15.7422L173.891 14.26L170.175 12.7778L156.495 47.0678L160.211 48.55ZM173.891 14.26V18.26H193.241V14.26V10.26H173.891V14.26ZM193.241 14.26L189.265 14.6983L193.045 48.9883L197.021 48.55L200.997 48.1117L197.217 13.8217L193.241 14.26ZM197.021 48.55V52.55H197.381V48.55V44.55H197.021V48.55ZM197.381 48.55L201.099 50.0238L214.689 15.7338L210.971 14.26L207.252 12.7862L193.662 47.0762L197.381 48.55ZM210.971 14.26V18.26H228.701V14.26V10.26H210.971V14.26ZM228.701 14.26L225.003 12.7346L199.533 74.4746L203.231 76L206.928 77.5254L232.398 15.7854L228.701 14.26ZM203.231 76V72H181.811V76V80H203.231V76ZM181.811 76L185.787 75.5649L182.547 45.9549L178.571 46.39L174.594 46.8251L177.834 76.4351L181.811 76ZM178.571 46.39V42.39H178.031V46.39V50.39H178.571V46.39ZM178.031 46.39L174.311 44.92L162.611 74.53L166.331 76L170.051 77.47L181.751 47.86L178.031 46.39ZM166.331 76V72H144.551V76V80H166.331V76ZM225.142 76L221.182 75.44L220.537 80H225.142V76ZM233.872 14.26V10.26H230.398L229.912 13.7L233.872 14.26ZM280.222 14.26L284.091 15.2756L285.408 10.26H280.222V14.26ZM276.442 28.66V32.66H279.528L280.311 29.6756L276.442 28.66ZM250.432 28.66V24.66H246.963L246.472 28.0943L250.432 28.66ZM249.172 37.48L245.212 36.9143L244.56 41.48H249.172V37.48ZM274.102 37.48L278.065 38.0239L278.689 33.48H274.102V37.48ZM272.212 51.25V55.25H275.701L276.175 51.7939L272.212 51.25ZM247.192 51.25V47.25H243.71L243.23 50.6988L247.192 51.25ZM245.752 61.6L241.79 61.0488L241.157 65.6H245.752V61.6ZM271.402 61.6L275.402 61.575L275.377 57.6H271.402V61.6ZM271.492 76V80H275.517L275.492 75.975L271.492 76ZM225.142 76L229.103 76.56L237.833 14.82L233.872 14.26L229.912 13.7L221.182 75.44L225.142 76ZM233.872 14.26V18.26H280.222V14.26V10.26H233.872V14.26ZM280.222 14.26L276.353 13.2444L272.573 27.6444L276.442 28.66L280.311 29.6756L284.091 15.2756L280.222 14.26ZM276.442 28.66V24.66H250.432V28.66V32.66H276.442V28.66ZM250.432 28.66L246.472 28.0943L245.212 36.9143L249.172 37.48L253.132 38.0457L254.392 29.2257L250.432 28.66ZM249.172 37.48V41.48H274.102V37.48V33.48H249.172V37.48ZM274.102 37.48L270.139 36.9361L268.249 50.7061L272.212 51.25L276.175 51.7939L278.065 38.0239L274.102 37.48ZM272.212 51.25V47.25H247.192V51.25V55.25H272.212V51.25ZM247.192 51.25L243.23 50.6988L241.79 61.0488L245.752 61.6L249.714 62.1512L251.154 51.8012L247.192 51.25ZM245.752 61.6V65.6H271.402V61.6V57.6H245.752V61.6ZM271.402 61.6L267.402 61.625L267.492 76.025L271.492 76L275.492 75.975L275.402 61.575L271.402 61.6ZM271.492 76V72H225.142V76V80H271.492V76ZM317.267 76L318.612 72.233L318.552 72.2115L318.491 72.1919L317.267 76ZM313.397 73.3L310.092 75.5533L310.117 75.5894L310.142 75.625L313.397 73.3ZM312.407 64.48L308.485 63.6955V63.6955L312.407 64.48ZM312.497 57.91L316.395 57.0106V57.0106L312.497 57.91ZM311.417 56.02L308.427 58.6775L308.584 58.8533L308.76 59.0096L311.417 56.02ZM309.437 54.85L308.092 58.617L308.214 58.6605L308.338 58.6961L309.437 54.85ZM300.617 54.4V50.4H297.144L296.657 53.8389L300.617 54.4ZM297.557 76V80H301.03L301.517 76.5611L297.557 76ZM279.107 76L275.146 75.4456L274.508 80H279.107V76ZM287.747 14.26V10.26H284.268L283.786 13.7056L287.747 14.26ZM330.137 16.15L328.163 19.6287L328.199 19.6492L328.235 19.6688L330.137 16.15ZM335.447 21.19L332.034 23.2758L332.068 23.3318L332.104 23.3867L335.447 21.19ZM335.627 36.85L332.067 35.0265L332.049 35.0612L332.032 35.0963L335.627 36.85ZM330.767 42.97L328.279 39.8376L328.257 39.8557L328.234 39.8742L330.767 42.97ZM324.287 46.48L323.111 42.6569L320.832 43.3579L320.365 45.6955L324.287 46.48ZM324.197 46.93L320.275 46.1455L319.555 49.7428L323.077 50.77L324.197 46.93ZM327.797 48.55L325.531 51.8462L325.647 51.9262L325.769 51.9977L327.797 48.55ZM330.227 50.8L326.899 53.0188L326.985 53.1486L327.082 53.2713L330.227 50.8ZM331.757 61.06L327.852 60.1923L327.829 60.2968L327.811 60.4024L331.757 61.06ZM331.757 67.81L327.835 68.5945V68.5945L331.757 67.81ZM332.747 70.15L329.512 72.5027L329.579 72.5948L329.651 72.683L332.747 70.15ZM334.907 71.5L338.865 72.0792L339.381 68.5532L335.938 67.6351L334.907 71.5ZM334.367 75.19L335.786 78.93L337.984 78.096L338.325 75.7692L334.367 75.19ZM328.877 76.54L328.381 72.5709L328.877 76.54ZM302.597 40.63L298.632 40.1052L298.033 44.63H302.597V40.63ZM315.647 39.55L318.25 42.587L318.311 42.5353L318.369 42.4812L315.647 39.55ZM317.537 36.67L313.823 35.1844L313.803 35.2355L313.784 35.2872L317.537 36.67ZM317.177 29.74L313.951 32.1054L314.041 32.2279L314.14 32.3432L317.177 29.74ZM304.217 28.39V24.39H300.712L300.252 27.8652L304.217 28.39ZM323.387 76.9V72.9C321.297 72.9 319.74 72.6358 318.612 72.233L317.267 76L315.922 79.767C318.154 80.5642 320.677 80.9 323.387 80.9V76.9ZM317.267 76L318.491 72.1919C317.51 71.8767 316.984 71.4396 316.652 70.975L313.397 73.3L310.142 75.625C311.61 77.6804 313.663 79.0433 316.043 79.8081L317.267 76ZM313.397 73.3L316.702 71.0467C316.389 70.5876 316.047 69.7127 316.047 68.08H312.047H308.047C308.047 70.7673 308.605 73.3724 310.092 75.5533L313.397 73.3ZM312.047 68.08H316.047C316.047 67.1486 316.14 66.2113 316.329 65.2645L312.407 64.48L308.485 63.6955C308.194 65.1487 308.047 66.6114 308.047 68.08H312.047ZM312.407 64.48L316.329 65.2645C316.627 63.7759 316.767 62.2206 316.767 60.61H312.767H308.767C308.767 61.7594 308.667 62.7841 308.485 63.6955L312.407 64.48ZM312.767 60.61H316.767C316.767 59.3654 316.658 58.153 316.395 57.0106L312.497 57.91L308.599 58.8094C308.696 59.227 308.767 59.8146 308.767 60.61H312.767ZM312.497 57.91L316.395 57.0106C316.049 55.5134 315.301 54.1208 314.074 53.0304L311.417 56.02L308.76 59.0096C308.704 58.9598 308.654 58.8975 308.619 58.8371C308.586 58.78 308.588 58.761 308.599 58.8094L312.497 57.91ZM311.417 56.02L314.407 53.3625C313.325 52.146 311.952 51.4086 310.536 51.0039L309.437 54.85L308.338 58.6961C308.475 58.7352 308.528 58.7669 308.527 58.7662C308.526 58.7658 308.514 58.7585 308.495 58.7426C308.475 58.7265 308.452 58.7047 308.427 58.6775L311.417 56.02ZM309.437 54.85L310.782 51.083C309.341 50.5684 307.723 50.4 306.107 50.4V54.4V58.4C307.251 58.4 307.853 58.5316 308.092 58.617L309.437 54.85ZM306.107 54.4V50.4H300.617V54.4V58.4H306.107V54.4ZM300.617 54.4L296.657 53.8389L293.597 75.4389L297.557 76L301.517 76.5611L304.577 54.9611L300.617 54.4ZM297.557 76V72H279.107V76V80H297.557V76ZM279.107 76L283.068 76.5544L291.708 14.8144L287.747 14.26L283.786 13.7056L275.146 75.4456L279.107 76ZM287.747 14.26V18.26H322.667V14.26V10.26H287.747V14.26ZM322.667 14.26V18.26C324.793 18.26 326.593 18.7379 328.163 19.6287L330.137 16.15L332.111 12.6713C329.241 11.0421 326.061 10.26 322.667 10.26V14.26ZM330.137 16.15L328.235 19.6688C329.832 20.5318 331.081 21.7165 332.034 23.2758L335.447 21.19L338.86 19.1042C337.173 16.3435 334.882 14.1681 332.039 12.6312L330.137 16.15ZM335.447 21.19L332.104 23.3867C333.023 24.7852 333.517 26.4098 333.517 28.39H337.517H341.517C341.517 24.9702 340.631 21.7948 338.79 18.9933L335.447 21.19ZM337.517 28.39H333.517C333.517 31.0318 332.997 33.2104 332.067 35.0265L335.627 36.85L339.187 38.6735C340.777 35.5696 341.517 32.1082 341.517 28.39H337.517ZM335.627 36.85L332.032 35.0963C331.08 37.0477 329.828 38.6076 328.279 39.8376L330.767 42.97L333.255 46.1024C335.786 44.0924 337.774 41.5723 339.222 38.6037L335.627 36.85ZM330.767 42.97L328.234 39.8742C326.637 41.1812 324.934 42.096 323.111 42.6569L324.287 46.48L325.463 50.3031C328.32 49.424 330.937 47.9988 333.3 46.0658L330.767 42.97ZM324.287 46.48L320.365 45.6955L320.275 46.1455L324.197 46.93L328.119 47.7145L328.209 47.2645L324.287 46.48ZM324.197 46.93L323.077 50.77C324.22 51.1033 325.006 51.4851 325.531 51.8462L327.797 48.55L330.063 45.2538C328.668 44.2949 327.054 43.5967 325.317 43.09L324.197 46.93ZM327.797 48.55L325.769 51.9977C326.318 52.3207 326.664 52.6672 326.899 53.0188L330.227 50.8L333.555 48.5812C332.59 47.1328 331.316 45.9793 329.825 45.1023L327.797 48.55ZM330.227 50.8L327.082 53.2713C327.37 53.6388 327.623 54.1217 327.799 54.788L331.667 53.77L335.535 52.752C335.111 51.1383 334.404 49.6412 333.372 48.3287L330.227 50.8ZM331.667 53.77L327.799 54.788C327.998 55.5449 328.117 56.4567 328.117 57.55H332.117H336.117C336.117 55.8833 335.936 54.2751 335.535 52.752L331.667 53.77ZM332.117 57.55H328.117C328.117 58.5576 328.021 59.4333 327.852 60.1923L331.757 61.06L335.662 61.9277C335.973 60.5267 336.117 59.0624 336.117 57.55H332.117ZM331.757 61.06L327.811 60.4024C327.584 61.7696 327.487 63.3241 327.487 65.02H331.487H335.487C335.487 63.5959 335.57 62.5104 335.703 61.7176L331.757 61.06ZM331.487 65.02H327.487C327.487 66.2314 327.601 67.4246 327.835 68.5945L331.757 67.81L335.679 67.0255C335.553 66.3954 335.487 65.7286 335.487 65.02H331.487ZM331.757 67.81L327.835 68.5945C328.114 69.9899 328.652 71.3206 329.512 72.5027L332.747 70.15L335.982 67.7973C335.882 67.6594 335.76 67.4301 335.679 67.0255L331.757 67.81ZM332.747 70.15L329.651 72.683C330.772 74.053 332.244 74.9296 333.876 75.3649L334.907 71.5L335.938 67.6351C335.885 67.6211 335.852 67.6084 335.833 67.6005C335.815 67.5928 335.809 67.5888 335.812 67.5905C335.815 67.5924 335.822 67.5971 335.83 67.6042C335.834 67.6075 335.837 67.6105 335.839 67.6131C335.842 67.6156 335.843 67.6171 335.843 67.6171L332.747 70.15ZM334.907 71.5L330.949 70.9208L330.409 74.6108L334.367 75.19L338.325 75.7692L338.865 72.0792L334.907 71.5ZM334.367 75.19L332.948 71.45C331.517 71.9928 329.998 72.3688 328.381 72.5709L328.877 76.54L329.373 80.5091C331.596 80.2312 333.737 79.7072 335.786 78.93L334.367 75.19ZM328.877 76.54L328.381 72.5709C326.607 72.7926 324.944 72.9 323.387 72.9V76.9V80.9C325.31 80.9 327.307 80.7674 329.373 80.5091L328.877 76.54ZM302.597 40.63V44.63H312.497V40.63V36.63H302.597V40.63ZM312.497 40.63V44.63C314.571 44.63 316.585 44.0144 318.25 42.587L315.647 39.55L313.044 36.513C313.029 36.5256 312.943 36.63 312.497 36.63V40.63ZM315.647 39.55L318.369 42.4812C319.697 41.2478 320.666 39.7466 321.29 38.0528L317.537 36.67L313.784 35.2872C313.568 35.8734 313.277 36.2922 312.925 36.6188L315.647 39.55ZM317.537 36.67L321.251 38.1556C321.924 36.4729 322.257 34.7078 322.257 32.89H318.257H314.257C314.257 33.7122 314.11 34.4671 313.823 35.1844L317.537 36.67ZM318.257 32.89H322.257C322.257 30.8161 321.641 28.8021 320.214 27.1368L317.177 29.74L314.14 32.3432C314.153 32.3579 314.257 32.4439 314.257 32.89H318.257ZM317.177 29.74L320.403 27.3746C318.81 25.2027 316.434 24.39 314.117 24.39V28.39V32.39C314.38 32.39 314.407 32.4332 314.302 32.3872C314.249 32.3637 314.18 32.3248 314.109 32.2674C314.038 32.2101 313.985 32.1515 313.951 32.1054L317.177 29.74ZM314.117 28.39V24.39H304.217V28.39V32.39H314.117V28.39ZM304.217 28.39L300.252 27.8652L298.632 40.1052L302.597 40.63L306.562 41.1548L308.182 28.9148L304.217 28.39Z" fill="#2A2A2A" mask="url(#path-1-outside-1_2230_1270)"/>
<path d="M22.6809 132.5C20.3142 132.5 18.1975 132.017 16.3309 131.05C14.4975 130.083 13.0642 128.683 12.0309 126.85C10.9975 125.017 10.4809 122.8 10.4809 120.2C10.4809 119.5 10.5809 118.417 10.7809 116.95C10.9809 115.45 11.1809 113.983 11.3809 112.55C11.7142 110.05 12.3475 107.85 13.2809 105.95C14.2142 104.05 15.3975 102.45 16.8309 101.15C18.2975 99.85 19.9642 98.8667 21.8309 98.2C23.7309 97.5333 25.7975 97.2 28.0309 97.2H28.5309C30.6642 97.2 32.5975 97.6167 34.3309 98.45C36.0975 99.25 37.4975 100.433 38.5309 102C39.5642 103.533 40.0809 105.417 40.0809 107.65C40.0809 108.017 40.0642 108.383 40.0309 108.75C40.0309 109.117 39.9975 109.467 39.9309 109.8H33.9309C33.9642 109.533 33.9809 109.283 33.9809 109.05C34.0142 108.817 34.0309 108.583 34.0309 108.35C34.0309 106.95 33.7309 105.817 33.1309 104.95C32.5642 104.083 31.7809 103.45 30.7809 103.05C29.7809 102.65 28.6642 102.45 27.4309 102.45C25.6975 102.45 24.1475 102.817 22.7809 103.55C21.4475 104.283 20.3475 105.4 19.4809 106.9C18.6142 108.367 18.0142 110.25 17.6809 112.55C17.5142 113.783 17.3642 114.817 17.2309 115.65C17.1309 116.45 17.0475 117.117 16.9809 117.65C16.9142 118.183 16.8642 118.633 16.8309 119C16.8309 119.333 16.8309 119.65 16.8309 119.95C16.8309 121.583 17.1309 122.95 17.7309 124.05C18.3309 125.117 19.1642 125.917 20.2309 126.45C21.3309 126.983 22.5975 127.25 24.0309 127.25C25.1975 127.25 26.2642 127.117 27.2309 126.85C28.2309 126.55 29.1142 126.1 29.8809 125.5C30.6475 124.867 31.2642 124.067 31.7309 123.1C32.2309 122.1 32.5475 120.9 32.6809 119.5L32.7809 118.6H23.9809L24.6809 113.65H39.3809L37.7309 125.4C37.5309 126.733 37.3809 127.95 37.2809 129.05C37.1809 130.15 37.1309 131.133 37.1309 132H33.5809L33.0809 128C31.7809 129.433 30.2975 130.55 28.6309 131.35C26.9975 132.117 25.1142 132.5 22.9809 132.5H22.6809ZM45.6082 141.3C44.8082 141.3 44.0749 141.233 43.4082 141.1C42.7749 141 42.2249 140.833 41.7582 140.6L42.3582 136.15C42.6915 136.317 43.1415 136.467 43.7082 136.6C44.3082 136.767 44.8749 136.85 45.4082 136.85C45.9749 136.85 46.5749 136.7 47.2082 136.4C47.8749 136.1 48.5582 135.533 49.2582 134.7C49.9582 133.9 50.6082 132.767 51.2082 131.3L44.8082 106.45H51.0582L55.1082 124H55.3582L64.2082 106.45H70.0082L57.2582 130.8C56.2582 132.733 55.1749 134.483 54.0082 136.05C52.8415 137.65 51.5582 138.917 50.1582 139.85C48.7915 140.817 47.2749 141.3 45.6082 141.3ZM70.3313 132L73.9313 106.45H78.3313L78.4813 110.2C79.3146 109.2 80.1646 108.383 81.0312 107.75C81.9313 107.117 82.8479 106.667 83.7813 106.4C84.7479 106.1 85.7146 105.95 86.6813 105.95C88.3479 105.95 89.7646 106.3 90.9313 107C92.1313 107.667 92.9813 108.717 93.4813 110.15C94.7813 108.55 96.1313 107.45 97.5313 106.85C98.9313 106.25 100.348 105.95 101.781 105.95C103.848 105.95 105.565 106.517 106.931 107.65C108.298 108.75 108.981 110.45 108.981 112.75C108.981 113.183 108.898 114.1 108.731 115.5C108.565 116.867 108.298 118.883 107.931 121.55C107.565 124.183 107.065 127.667 106.431 132H100.531C100.898 129.4 101.215 127.067 101.481 125C101.781 122.9 102.031 121.083 102.231 119.55C102.465 118.017 102.631 116.8 102.731 115.9C102.831 115 102.881 114.45 102.881 114.25C102.881 112.85 102.581 111.867 101.981 111.3C101.381 110.7 100.548 110.4 99.4813 110.4C98.5813 110.4 97.6979 110.667 96.8313 111.2C95.9646 111.733 95.2313 112.467 94.6313 113.4C94.0313 114.3 93.6479 115.333 93.4813 116.5L91.3313 132H85.4313C85.9313 128.533 86.3313 125.683 86.6313 123.45C86.9313 121.183 87.1646 119.417 87.3313 118.15C87.4979 116.85 87.6146 115.917 87.6813 115.35C87.7813 114.75 87.8313 114.383 87.8313 114.25C87.8313 112.917 87.5146 111.95 86.8813 111.35C86.2813 110.717 85.4479 110.4 84.3813 110.4C83.4479 110.4 82.5479 110.667 81.6813 111.2C80.8479 111.733 80.1313 112.467 79.5313 113.4C78.9313 114.3 78.5479 115.333 78.3813 116.5L76.2313 132H70.3313ZM136.259 132C134.226 132 132.359 131.717 130.659 131.15C128.959 130.583 127.593 129.7 126.559 128.5C125.559 127.3 125.059 125.75 125.059 123.85C125.059 122.05 125.393 120.517 126.059 119.25C126.726 117.983 127.626 116.95 128.759 116.15C129.893 115.317 131.143 114.7 132.509 114.3L132.659 114.15C131.326 113.483 130.226 112.617 129.359 111.55C128.526 110.483 128.109 109.133 128.109 107.5C128.109 105.233 128.676 103.35 129.809 101.85C130.943 100.317 132.476 99.1667 134.409 98.4C136.376 97.6 138.576 97.2 141.009 97.2C141.543 97.2 142.043 97.2333 142.509 97.3C143.009 97.3667 143.476 97.4333 143.909 97.5L143.209 102.75C142.909 102.65 142.526 102.567 142.059 102.5C141.593 102.4 141.176 102.35 140.809 102.35C139.509 102.35 138.343 102.533 137.309 102.9C136.309 103.267 135.509 103.817 134.909 104.55C134.343 105.25 134.059 106.167 134.059 107.3C134.059 108.1 134.259 108.867 134.659 109.6C135.093 110.3 135.693 110.867 136.459 111.3C137.259 111.733 138.226 111.95 139.359 111.95H145.509L148.159 105.1H152.309L151.359 111.95H156.459L155.759 117H150.659L148.559 132H136.259ZM137.609 127H143.209L144.609 117H139.359C137.559 117 136.043 117.233 134.809 117.7C133.609 118.133 132.709 118.783 132.109 119.65C131.509 120.483 131.209 121.5 131.209 122.7C131.209 124.233 131.826 125.333 133.059 126C134.293 126.667 135.809 127 137.609 127ZM170.431 132L175.281 97.7H197.631L196.181 102.5H180.731L179.331 112.6H193.031L192.281 117.4H178.631L176.581 132H170.431ZM198.254 132L201.854 106.45H207.754L204.154 132H198.254ZM202.504 101L203.204 96H209.254L208.554 101H202.504ZM219.283 132.5C217.449 132.5 215.966 132.133 214.833 131.4C213.733 130.667 213.183 129.383 213.183 127.55C213.183 127.117 213.249 126.35 213.383 125.25C213.516 124.15 213.683 122.833 213.883 121.3C214.116 119.733 214.349 118.05 214.583 116.25C214.849 114.45 215.116 112.633 215.383 110.8H212.583L213.183 106.45H215.983L219.083 98.3H223.433L221.883 106.45H227.833L227.233 110.8H221.283C220.883 113.467 220.516 115.883 220.183 118.05C219.883 120.217 219.633 122 219.433 123.4C219.266 124.767 219.183 125.617 219.183 125.95C219.183 126.95 219.433 127.583 219.933 127.85C220.466 128.117 221.033 128.25 221.633 128.25C221.999 128.25 222.516 128.167 223.183 128C223.849 127.833 224.399 127.667 224.833 127.5L224.283 131.6C223.883 131.767 223.383 131.917 222.783 132.05C222.216 132.217 221.616 132.333 220.983 132.4C220.383 132.467 219.816 132.5 219.283 132.5ZM229.755 132L233.355 106.45H237.755L237.855 110.2C238.655 109.3 239.522 108.533 240.455 107.9C241.388 107.267 242.388 106.783 243.455 106.45C244.555 106.117 245.688 105.95 246.855 105.95C249.122 105.95 251.005 106.517 252.505 107.65C254.005 108.75 254.755 110.483 254.755 112.85C254.755 113.05 254.738 113.35 254.705 113.75C254.672 114.15 254.605 114.733 254.505 115.5C254.405 116.267 254.255 117.35 254.055 118.75C253.855 120.117 253.605 121.883 253.305 124.05C253.005 126.183 252.622 128.833 252.155 132H246.255C246.688 129.033 247.038 126.55 247.305 124.55C247.605 122.55 247.838 120.933 248.005 119.7C248.172 118.433 248.305 117.467 248.405 116.8C248.505 116.1 248.572 115.6 248.605 115.3C248.638 114.967 248.655 114.717 248.655 114.55C248.655 113.183 248.272 112.15 247.505 111.45C246.772 110.75 245.788 110.4 244.555 110.4C243.522 110.4 242.522 110.683 241.555 111.25C240.588 111.783 239.755 112.517 239.055 113.45C238.388 114.35 237.972 115.383 237.805 116.55L235.655 132H229.755ZM270.141 132.5C268.075 132.5 266.241 132.1 264.641 131.3C263.075 130.5 261.841 129.35 260.941 127.85C260.075 126.317 259.641 124.45 259.641 122.25C259.641 119.983 259.925 117.867 260.491 115.9C261.091 113.933 261.958 112.217 263.091 110.75C264.258 109.25 265.691 108.083 267.391 107.25C269.125 106.383 271.141 105.95 273.441 105.95H274.041C275.908 105.95 277.591 106.3 279.091 107C280.625 107.7 281.825 108.717 282.691 110.05C283.591 111.383 284.041 113 284.041 114.9C284.041 115.3 284.008 115.783 283.941 116.35C283.908 116.883 283.841 117.483 283.741 118.15C283.641 118.817 283.525 119.55 283.391 120.35H265.691C265.658 120.65 265.625 120.983 265.591 121.35C265.558 121.717 265.541 122.017 265.541 122.25C265.541 123.95 265.975 125.367 266.841 126.5C267.708 127.6 269.091 128.15 270.991 128.15C272.458 128.15 273.641 127.85 274.541 127.25C275.441 126.65 276.108 125.917 276.541 125.05C277.008 124.15 277.308 123.3 277.441 122.5H283.041C282.741 124.667 282.008 126.5 280.841 128C279.708 129.5 278.258 130.633 276.491 131.4C274.725 132.133 272.775 132.5 270.641 132.5H270.141ZM266.191 116.55H277.991C278.058 116.183 278.091 115.883 278.091 115.65C278.125 115.417 278.141 115.183 278.141 114.95C278.141 113.483 277.708 112.35 276.841 111.55C276.008 110.717 274.808 110.3 273.241 110.3C271.508 110.3 270.008 110.833 268.741 111.9C267.508 112.933 266.658 114.483 266.191 116.55ZM296.358 132.5C294.292 132.5 292.558 132.217 291.158 131.65C289.792 131.05 288.758 130.25 288.058 129.25C287.392 128.25 287.058 127.133 287.058 125.9C287.058 125.467 287.075 125.083 287.108 124.75C287.175 124.383 287.225 124.117 287.258 123.95H292.758C292.725 124.183 292.692 124.367 292.658 124.5C292.658 124.633 292.658 124.783 292.658 124.95C292.658 125.717 292.908 126.35 293.408 126.85C293.942 127.317 294.642 127.65 295.508 127.85C296.375 128.05 297.292 128.15 298.258 128.15C299.025 128.15 299.775 128.083 300.508 127.95C301.242 127.817 301.892 127.617 302.458 127.35C303.058 127.05 303.542 126.683 303.908 126.25C304.275 125.817 304.458 125.283 304.458 124.65C304.458 123.817 304.092 123.2 303.358 122.8C302.625 122.367 301.675 122.033 300.508 121.8C299.375 121.533 298.158 121.267 296.858 121C295.592 120.733 294.375 120.383 293.208 119.95C292.075 119.483 291.142 118.817 290.408 117.95C289.675 117.083 289.308 115.933 289.308 114.5C289.308 113.1 289.592 111.867 290.158 110.8C290.725 109.733 291.525 108.85 292.558 108.15C293.625 107.417 294.875 106.867 296.308 106.5C297.742 106.133 299.325 105.95 301.058 105.95H301.758C303.092 105.95 304.325 106.1 305.458 106.4C306.592 106.7 307.575 107.133 308.408 107.7C309.242 108.233 309.892 108.883 310.358 109.65C310.825 110.383 311.058 111.2 311.058 112.1C311.058 112.5 311.025 112.85 310.958 113.15C310.925 113.45 310.875 113.683 310.808 113.85H305.358C305.392 113.717 305.408 113.583 305.408 113.45C305.442 113.317 305.458 113.2 305.458 113.1C305.458 112.533 305.275 112.05 304.908 111.65C304.542 111.217 303.992 110.883 303.258 110.65C302.558 110.417 301.675 110.3 300.608 110.3C299.575 110.3 298.692 110.4 297.958 110.6C297.258 110.767 296.675 111.017 296.208 111.35C295.775 111.65 295.442 111.983 295.208 112.35C295.008 112.717 294.908 113.083 294.908 113.45C294.908 114.183 295.275 114.75 296.008 115.15C296.742 115.55 297.675 115.883 298.808 116.15C299.975 116.417 301.208 116.7 302.508 117C303.808 117.267 305.025 117.65 306.158 118.15C307.325 118.617 308.275 119.267 309.008 120.1C309.742 120.933 310.108 122.033 310.108 123.4C310.108 125.167 309.758 126.633 309.058 127.8C308.358 128.967 307.408 129.9 306.208 130.6C305.008 131.267 303.658 131.75 302.158 132.05C300.658 132.35 299.108 132.5 297.508 132.5H296.358ZM323.214 132.5C321.147 132.5 319.414 132.217 318.014 131.65C316.647 131.05 315.614 130.25 314.914 129.25C314.247 128.25 313.914 127.133 313.914 125.9C313.914 125.467 313.93 125.083 313.964 124.75C314.03 124.383 314.08 124.117 314.114 123.95H319.614C319.58 124.183 319.547 124.367 319.514 124.5C319.514 124.633 319.514 124.783 319.514 124.95C319.514 125.717 319.764 126.35 320.264 126.85C320.797 127.317 321.497 127.65 322.364 127.85C323.23 128.05 324.147 128.15 325.114 128.15C325.88 128.15 326.63 128.083 327.364 127.95C328.097 127.817 328.747 127.617 329.314 127.35C329.914 127.05 330.397 126.683 330.764 126.25C331.13 125.817 331.314 125.283 331.314 124.65C331.314 123.817 330.947 123.2 330.214 122.8C329.48 122.367 328.53 122.033 327.364 121.8C326.23 121.533 325.014 121.267 323.714 121C322.447 120.733 321.23 120.383 320.064 119.95C318.93 119.483 317.997 118.817 317.264 117.95C316.53 117.083 316.164 115.933 316.164 114.5C316.164 113.1 316.447 111.867 317.014 110.8C317.58 109.733 318.38 108.85 319.414 108.15C320.48 107.417 321.73 106.867 323.164 106.5C324.597 106.133 326.18 105.95 327.914 105.95H328.614C329.947 105.95 331.18 106.1 332.314 106.4C333.447 106.7 334.43 107.133 335.264 107.7C336.097 108.233 336.747 108.883 337.214 109.65C337.68 110.383 337.914 111.2 337.914 112.1C337.914 112.5 337.88 112.85 337.814 113.15C337.78 113.45 337.73 113.683 337.664 113.85H332.214C332.247 113.717 332.264 113.583 332.264 113.45C332.297 113.317 332.314 113.2 332.314 113.1C332.314 112.533 332.13 112.05 331.764 111.65C331.397 111.217 330.847 110.883 330.114 110.65C329.414 110.417 328.53 110.3 327.464 110.3C326.43 110.3 325.547 110.4 324.814 110.6C324.114 110.767 323.53 111.017 323.064 111.35C322.63 111.65 322.297 111.983 322.064 112.35C321.864 112.717 321.764 113.083 321.764 113.45C321.764 114.183 322.13 114.75 322.864 115.15C323.597 115.55 324.53 115.883 325.664 116.15C326.83 116.417 328.064 116.7 329.364 117C330.664 117.267 331.88 117.65 333.014 118.15C334.18 118.617 335.13 119.267 335.864 120.1C336.597 120.933 336.964 122.033 336.964 123.4C336.964 125.167 336.614 126.633 335.914 127.8C335.214 128.967 334.264 129.9 333.064 130.6C331.864 131.267 330.514 131.75 329.014 132.05C327.514 132.35 325.964 132.5 324.364 132.5H323.214Z" fill="#2A2A2A"/>
</svg>
